<svg width="580" height="400" xmlns="http://www.w3.org/2000/svg">
 <!-- Created with Method Draw - http://github.com/duopixel/Method-Draw/ -->
 <g>
  <title>background</title>
  <rect fill="#000000" id="canvas_background" height="402" width="582" y="-1" x="-1"/>
  <g display="none" overflow="visible" y="0" x="0" height="100%" width="100%" id="canvasGrid">
   <rect fill="url(#gridpattern)" stroke-width="0" y="0" x="0" height="100%" width="100%"/>
  </g>
 </g>
 <g>
  <title>Layer 1</title>
  <rect stroke="#000" id="svg_1" height="80" width="10" y="249.999997" x="10" stroke-width="0" fill="#B6C7EA"/>
  <rect stroke="#000" id="svg_2" height="100" width="10" y="40" x="560" stroke-opacity="null" stroke-width="0" fill="#FFA9A2"/>
  <rect id="svg_3" height="14" width="8" y="150" x="160" stroke-opacity="null" stroke-width="0" stroke="#000" fill="#FFFA8D"/>
  <rect id="svg_5" height="14" width="8" y="300" x="201" stroke-opacity="null" stroke-width="0" stroke="#000" fill="#FFFA8D"/>
  <rect id="svg_6" height="14" width="8" y="220" x="120" stroke-opacity="null" stroke-width="0" stroke="#000" fill="#FFFA8D"/>
  <rect id="svg_7" height="14" width="8" y="135" x="80" stroke-opacity="null" stroke-width="0" stroke="#000" fill="#FFFA8D"/>
  <rect id="svg_8" height="14" width="8" y="78" x="240" stroke-opacity="null" stroke-width="0" stroke="#000" fill="#FFFA8D"/>
  <rect stroke="#000" id="svg_9" height="14" width="8" y="99" x="279" stroke-opacity="null" stroke-width="0" fill="#FFFA8D"/>
  <rect id="svg_10" height="14" width="8" y="270" x="320" stroke-opacity="null" stroke-width="0" stroke="#000" fill="#FFFA8D"/>
  <rect id="svg_11" height="14" width="8" y="28" x="361" stroke-opacity="null" stroke-width="0" stroke="#000" fill="#FFFA8D"/>
  <rect id="svg_12" height="14" width="8" y="70" x="400" stroke-opacity="null" stroke-width="0" stroke="#000" fill="#FFFA8D"/>
  <rect id="svg_13" height="14" width="8" y="200" x="440" stroke-opacity="null" stroke-width="0" stroke="#000" fill="#FFFA8D"/>
  <rect stroke="#000" id="svg_14" height="14" width="8" y="340" x="480" stroke-opacity="null" stroke-width="0" fill="#FFFA8D"/>
  <line stroke-linecap="null" stroke-linejoin="null" id="svg_16" y2="62" x2="567.5" y1="62" x1="566.5" stroke-opacity="null" stroke="#000" fill="none"/>
  <rect id="svg_18" height="0" width="1" y="447" x="601.5" stroke-opacity="null" stroke="#000" fill="#ffffff"/>
  <rect id="svg_20" height="12" width="12" y="194" x="513.5" stroke-opacity="null" stroke-width="null" stroke="#000" fill="#ffffff"/>
  <rect id="svg_21" height="0" width="1" y="274" x="607.5" stroke-opacity="null" stroke-width="null" stroke="#000" fill="#ffffff"/>
  <text style="cursor: move;" xml:space="preserve" text-anchor="start" font-family="Helvetica, Arial, sans-serif" font-size="24" id="svg_23" y="225" x="501" stroke-opacity="null" stroke-width="0" stroke="#000" fill="#ffffff">Ship</text>
  <text xml:space="preserve" text-anchor="start" font-family="Helvetica, Arial, sans-serif" font-size="24" id="svg_25" y="33" x="500" stroke-opacity="null" stroke-width="0" stroke="#000" fill="#ffffff">Paddle</text>
  <text xml:space="preserve" text-anchor="start" font-family="Helvetica, Arial, sans-serif" font-size="24" id="svg_27" y="43" x="211.5" stroke-opacity="null" stroke-width="0" stroke="#000" fill="#ffffff">Minefield</text>
  <text xml:space="preserve" text-anchor="start" font-family="Helvetica, Arial, sans-serif" font-size="24" id="svg_28" y="240" x="8" stroke-opacity="null" stroke-width="0" stroke="#000" fill="#ffffff">Target</text>
  <rect id="svg_29" height="14" width="8" y="340" x="300" stroke-opacity="null" stroke-width="0" stroke="#000" fill="#FFFA8D"/>
  <rect stroke="#000" id="svg_30" height="14" width="8" y="190" x="260" stroke-opacity="null" stroke-width="0" fill="#FFFA8D"/>
  <rect id="svg_31" height="14" width="8" y="175" x="340" stroke-opacity="null" stroke-width="0" stroke="#000" fill="#FFFA8D"/>
  <rect id="svg_32" height="14" width="8" y="70" x="140" stroke-opacity="null" stroke-width="0" stroke="#000" fill="#FFFA8D"/>
  <rect id="svg_33" height="14" width="8" y="300" x="100" stroke-opacity="null" stroke-width="0" stroke="#000" fill="#FFFA8D"/>
  <rect id="svg_34" height="14" width="8" y="230" x="190" stroke-opacity="null" stroke-width="0" stroke="#000" fill="#FFFA8D"/>
 </g>
</svg>